PathFileType	4	(X/Y/Z)	Apose_0-50.trc
DataRate	CameraRate	NumFrames	NumMarkers	Units	OrigDataRate	OrigDataStartFrame	OrigNumFrames
30	30	4	22	m	30	0	50
Frame#	Time	Hip			RHip			RKnee			RAnkle			RBigToe			RSmallToe			RHeel			LHip			LKnee			LAnkle			LBigToe			LSmallToe			LHeel			Neck			Head			Nose			RShoulder			RElbow			RWrist			LShoulder			LElbow			LWrist		
		X1	Y1	Z1	X2	Y2	Z2	X3	Y3	Z3	X4	Y4	Z4	X5	Y5	Z5	X6	Y6	Z6	X7	Y7	Z7	X8	Y8	Z8	X9	Y9	Z9	X10	Y10	Z10	X11	Y11	Z11	X12	Y12	Z12	X13	Y13	Z13	X14	Y14	Z14	X15	Y15	Z15	X16	Y16	Z16	X17	Y17	Z17	X18	Y18	Z18	X19	Y19	Z19	X20	Y20	Z20	X21	Y21	Z21	X22	Y22	Z22
1	0.03333333333333333	0.060767642149899326	0.9189200039124412	0.36925339455809253	0.05258466836982615	0.8943046335685908	0.4811030769976213	0.018530651114626484	0.5022856365109815	0.4995790341486984	-0.00123547609677481	0.10291865492409111	0.5117552345353272	0.20118112133863816	0.02926245625341478	0.5467805465197092	0.1515392131159881	0.021459296595025754	0.6052595089607203	-0.05052717101379165	0.02603416751846374	0.500632612929486	0.052671197090565766	0.8921859909946647	0.25653816892618647	0.04181111504509141	0.49586186771990115	0.2207831401791213	0.007327120472890061	0.12234630098513595	0.2088738667154849	0.20359585794279375	0.03387299853953098	0.18812650769188213	0.15906905926493753	0.029497046101310813	0.12916809693562598	-0.05795328420581786	0.028595957024476967	0.20499819458778967	0.05612289612009776	1.573588765230064	0.3566540299105377	0.16506930970894432	1.8318077513836104	0.3461854737214235	0.20777186023281674	1.6575452613376649	0.33021978542810926	0.03722007537982933	1.48366505107297	0.5569763960861057	0.10097113533002675	1.235568797256778	0.7270437204985402	0.18007108204385128	1.0369560656940218	0.893690726162949	-0.000328362985463128	1.4700351522327506	0.1670395903916309	0.01769025444597065	1.230960493266393	0.018181410893465526	0.08597333232143317	1.0242621160975336	-0.1343553833169769
2	0.06666666666666667	0.060434543568618666	0.9201982964426372	0.3707869177814265	0.0553943027904086	0.8923671986402897	0.48040787133923957	0.018886423056221346	0.5028808825302077	0.503616063131097	-0.006336665468021914	0.10536210604896236	0.5181083787877383	0.20212915565095518	0.035951872705336244	0.5550169935207941	0.14582233039506082	0.028300823017392934	0.6155701861803865	-0.052600773204926	0.035333654335691626	0.5045136450394916	0.05548644343941704	0.8894379349264403	0.2582097261241209	0.027588099415124467	0.5051079159510451	0.2321595813091654	0.007384441016680074	0.12387076355374811	0.21301760138334014	0.20546031695808675	0.0373367004382349	0.1917160664636331	0.155500990249957	0.03448031713151473	0.12842948691921538	-0.059096249264352835	0.03221102621861131	0.20582281703861724	0.04855870173976239	1.5736035894153155	0.3609274331581092	0.15713736700553033	1.812802693834677	0.3283872986263547	0.28012212524450775	1.665914371650627	0.3424247539842811	0.03507556479838733	1.4834315037876733	0.5572531397409786	0.10298258942442538	1.2333546480169386	0.7282684683339201	0.18320959387583333	1.0341403953293042	0.8947209432694271	0.003060939404536659	1.469396931439367	0.164763249896073	0.021113218037302355	1.2268167068024247	0.017509450142340878	0.08754376410805419	1.0191487287463417	-0.13502656818810327
3	0.1	0.051317546155943465	0.919008094966724	0.36892043002517594	0.04522821864524827	0.8906012695475903	0.47716715205446025	0.01271763051367591	0.5059678717534289	0.5013679680459758	-0.006944535265201528	0.10424656496047373	0.5182891087017759	0.20663582188991508	0.03973002248281404	0.5640886385445827	0.15115201469033399	0.03076985758280203	0.6189588243039938	-0.04015682433307343	0.036262951026755766	0.49462060049634204	0.04718330769654911	0.8877318186051121	0.25598425486607373	0.023093066368993755	0.5090567348229503	0.22978413109914572	0.0038540471775940373	0.1220219498194877	0.21482962280295692	0.21240904106953204	0.0386515311707449	0.18610108552237625	0.16499202911223235	0.03905974007002857	0.1291993108891232	-0.033839150872552425	0.04781863223462495	0.22682162171072576	0.06067118024827302	1.5678968979449583	0.3621055324923326	0.20753978197052628	1.785733240712505	0.3253556833675448	0.3101718527592504	1.6328662452830556	0.35008208127811963	0.03601546228401062	1.484603848212083	0.5533871474385696	0.09499942375414859	1.23659538862096	0.7258080216148357	0.17392955900274976	1.0309789155977398	0.8891927920126935	0.010456219454069991	1.4715365736286072	0.16122009325834738	0.01860265596799784	1.226621568784495	0.009090430498160837	0.07007606167671558	1.0117064268201368	-0.1420118272568944
4	0.13333333333333333	0.04672633913419238	0.919070442001496	0.36515685701748557	0.039391109160797896	0.8883617539622889	0.47620817614357125	0.010172720648300142	0.5043787622190062	0.501986004907856	-0.00924883506322574	0.10532816421359403	0.5188452549169952	0.20825510809919393	0.04056409040241076	0.566051999085532	0.1527734126346211	0.0310001681525746	0.6166117834068842	-0.04218067212824785	0.03581903812474372	0.497301822135798	0.04095988013994903	0.8860366585924453	0.2547171971494127	0.022325796414086666	0.509875986727062	0.22869538853202945	0.007941405386593034	0.1090433803886686	0.21141789032735922	0.21541381005827176	0.037099001620009474	0.18319554586923104	0.16578247966152765	0.038562825593278664	0.13130345218847786	-0.03199892742606271	0.04545383237849311	0.22958649970222886	0.06455437897331287	1.5678532721142846	0.3610377431943906	0.22575909051080414	1.7739669790751726	0.32289005216908806	0.32428516900866416	1.6214734532592894	0.3497551340437586	0.03508977760237676	1.4857618562767179	0.5497905225867348	0.0928550368608856	1.2376607434928275	0.7259154164931815	0.1509954575704088	1.0408363174345305	0.8986559070789709	0.01321010213768388	1.4739712829457456	0.15528933134224515	0.0004486177094014845	1.2121949549168372	0.002954589893460102	0.0614109264505335	1.0129220530882415	-0.14240899494096884
